<svg width="53" height="63" viewBox="0 0 53 63" fill="none" xmlns="http://www.w3.org/2000/svg">
<path fill-rule="evenodd" clip-rule="evenodd" d="M41.875 5.875H11.125C8.29454 5.875 6 8.16954 6 11V52C6 54.8305 8.29454 57.125 11.125 57.125H41.875C44.7055 57.125 47 54.8305 47 52V11C47 8.16954 44.7055 5.875 41.875 5.875ZM11.125 0.75C5.46408 0.75 0.875 5.33908 0.875 11V52C0.875 57.6609 5.46408 62.25 11.125 62.25H41.875C47.5359 62.25 52.125 57.6609 52.125 52V11C52.125 5.33908 47.5359 0.75 41.875 0.75H11.125Z" fill="#1B1B36"/>
<path fill-rule="evenodd" clip-rule="evenodd" d="M35.4714 44.1488C33.7236 47.3026 30.3611 49.4375 26.5 49.4375C21.6471 49.4375 17.5819 46.065 16.5202 41.5358C17.0017 41.0288 17.6707 40.4347 18.4823 39.971C19.3083 39.499 20.2346 39.1875 21.2549 39.1875C22.2559 39.1875 23.5298 39.4863 25.0786 40.5188C29.169 43.2458 32.7447 44.0889 35.4714 44.1488ZM36.7478 38.9748C36.4657 39.0066 36.1453 39.0273 35.7891 39.0273C34.0687 39.0273 31.3577 38.5454 27.9214 36.2546C25.6265 34.7246 23.3769 34.0625 21.2549 34.0625C19.7274 34.0625 18.3616 34.4052 17.1857 34.9029C18.8082 31.3817 22.3686 28.9375 26.5 28.9375C32.0898 28.9375 36.6346 33.4121 36.7478 38.9748ZM41.875 39.1875C41.875 47.6789 34.9914 54.5625 26.5 54.5625C18.0086 54.5625 11.125 47.6789 11.125 39.1875C11.125 30.6961 18.0086 23.8125 26.5 23.8125C34.9914 23.8125 41.875 30.6961 41.875 39.1875Z" fill="#1B1B36"/>
<path d="M18.8125 13.5625C18.8125 16.393 16.518 18.6875 13.6875 18.6875C10.857 18.6875 8.5625 16.393 8.5625 13.5625C8.5625 10.732 10.857 8.4375 13.6875 8.4375C16.518 8.4375 18.8125 10.732 18.8125 13.5625Z" fill="#1B1B36"/>
<path fill-rule="evenodd" clip-rule="evenodd" d="M26.5 13.5625C26.5 12.1473 27.6473 11 29.0625 11H31.625C33.0402 11 34.1875 12.1473 34.1875 13.5625C34.1875 14.9777 33.0402 16.125 31.625 16.125H29.0625C27.6473 16.125 26.5 14.9777 26.5 13.5625Z" fill="#1B1B36"/>
<path fill-rule="evenodd" clip-rule="evenodd" d="M36.75 13.5625C36.75 12.1473 37.8973 11 39.3125 11H41.875C43.2902 11 44.4375 12.1473 44.4375 13.5625C44.4375 14.9777 43.2902 16.125 41.875 16.125H39.3125C37.8973 16.125 36.75 14.9777 36.75 13.5625Z" fill="#1B1B36"/>
</svg>
