<svg width="103" height="44" viewBox="0 0 103 44" fill="none" xmlns="http://www.w3.org/2000/svg">
<g opacity="0.8">
<path d="M22.7187 44C35.2658 44 45.4373 34.1503 45.4373 22C45.4373 9.84974 35.2658 0 22.7187 0C10.1715 0 0 9.84974 0 22C0 34.1503 10.1715 44 22.7187 44Z" fill="#B50A3E"/>
<path d="M38.8719 20.9986C38.8719 32.0262 29.7551 40.966 19.5365 40.966C9.31793 40.966 1.03467 32.0262 1.03467 20.9986C1.03467 9.97098 11.4357 1.03125 21.6543 1.03125C31.8729 1.03125 38.8719 9.97098 38.8719 20.9986Z" fill="url(#paint0_linear_2517_52044)"/>
<path opacity="0.8" d="M28.2128 21.2609V23.2778H40.0863C39.8272 27.4738 37.9665 31.2446 35.0831 34.0384C31.9701 37.0521 27.6792 38.9121 22.9304 38.9121C18.1808 38.9121 13.8907 37.0521 10.7769 34.0384C7.66561 31.0223 5.74361 26.8683 5.74361 22.2698C5.74361 17.6704 7.66603 13.516 10.7769 10.5007C13.8907 7.48708 18.1808 5.62668 22.9304 5.62668L23.8726 5.62588V3.60938H22.9304C12.2877 3.61059 3.66123 11.9634 3.6604 22.2702C3.66123 32.5766 12.2877 40.9294 22.9304 40.9302C33.573 40.9294 42.1995 32.5766 42.2004 22.2702V21.2613H28.2128V21.2609ZM12.7934 15.2953C12.7934 16.0261 13.0932 16.727 13.6269 17.2438C14.1605 17.7605 14.8843 18.0508 15.639 18.0508C16.3936 18.0508 17.1174 17.7605 17.651 17.2438C18.1847 16.727 18.4845 16.0261 18.4845 15.2953C18.4845 14.5645 18.1847 13.8637 17.651 13.3469C17.1174 12.8301 16.3936 12.5398 15.639 12.5398C14.8843 12.5398 14.1605 12.8301 13.6269 13.3469C13.0932 13.8637 12.7934 14.5645 12.7934 15.2953ZM21.7994 12.6096V32.0498H28.2652V30.0329H23.8822L23.8831 12.6096H21.7994Z" fill="#4D4D4D"/>
<path d="M27.868 21.0344V23.0513H39.7416C39.4825 27.2468 37.6217 31.0176 34.7383 33.8115C31.6254 36.8251 27.3344 38.6855 22.5857 38.6855C17.8361 38.6855 13.5459 36.8251 10.4322 33.8115C7.3213 30.7958 5.39888 26.6414 5.39888 22.0432C5.39888 17.4439 7.3213 13.2894 10.4322 10.2742C13.5459 7.26051 17.8361 5.40012 22.5857 5.40012L23.5279 5.39931V3.38281H22.5857C11.943 3.38362 3.31651 11.7364 3.31567 22.0432C3.31651 32.3492 11.943 40.702 22.5857 40.7028C33.2283 40.702 41.8548 32.3492 41.8556 22.0432V21.0344H27.868ZM12.4491 15.0684C12.4491 15.4302 12.5227 15.7885 12.6657 16.1228C12.8087 16.4572 13.0183 16.7609 13.2826 17.0168C13.5468 17.2727 13.8605 17.4756 14.2057 17.6141C14.5509 17.7526 14.921 17.8239 15.2946 17.8239C15.6683 17.8239 16.0383 17.7526 16.3836 17.6141C16.7288 17.4756 17.0425 17.2727 17.3067 17.0168C17.5709 16.7609 17.7805 16.4572 17.9235 16.1228C18.0665 15.7885 18.1402 15.4302 18.1402 15.0684C18.1402 14.3376 17.8404 13.6367 17.3067 13.1199C16.7731 12.6032 16.0493 12.3129 15.2946 12.3129C14.54 12.3129 13.8162 12.6032 13.2826 13.1199C12.7489 13.6367 12.4491 14.3376 12.4491 15.0684ZM21.4547 12.3831V31.8232H27.9205V29.8059H23.5375L23.5383 12.3831H21.4547Z" fill="url(#paint1_linear_2517_52044)"/>
<path d="M102.946 33.907C99.453 35.7864 95.0442 36.4458 91.0957 36.4458C80.7355 36.4458 77.1676 30.8204 77.1676 21.9315C77.1676 13.0426 81.6218 7.26172 91.6701 7.26172C95.9223 7.26172 99.8271 8.21894 103 11.8958L98.7349 15.6734C97.1224 13.5577 94.6693 12.5504 91.6701 12.5504C85.7312 12.5504 83.7026 16.7625 83.7026 21.9315C83.7026 27.1004 85.1588 31.0362 91.6701 31.0362C94.2519 31.0362 95.709 30.7558 96.8104 30.1294V25.1726H91.3489V20.0553H102.946V33.907H102.946ZM55.4999 7.88857V36.1252H76.1891V30.4779H62.3039V7.90269L55.4999 7.88857Z" fill="#6E6E70"/>
</g>
<defs>
<linearGradient id="paint0_linear_2517_52044" x1="19.9535" y1="1.03125" x2="19.9535" y2="40.9664" gradientUnits="userSpaceOnUse">
<stop offset="0.06" stop-color="#E3838D"/>
<stop offset="0.385" stop-color="#CE3D61"/>
<stop offset="0.632" stop-color="#B50A3E"/>
</linearGradient>
<linearGradient id="paint1_linear_2517_52044" x1="22.5857" y1="3.38281" x2="22.5857" y2="40.7028" gradientUnits="userSpaceOnUse">
<stop offset="0.082" stop-color="white"/>
<stop offset="0.35" stop-color="#FCFCFC"/>
<stop offset="0.527" stop-color="#F3F3F3"/>
<stop offset="0.679" stop-color="#E4E4E4"/>
<stop offset="0.815" stop-color="#CFCFCF"/>
<stop offset="0.941" stop-color="#B4B4B4"/>
<stop offset="0.945" stop-color="#B3B3B3"/>
</linearGradient>
</defs>
</svg>
